<svg width="102" height="23" viewBox="0 0 102 23" fill="none" xmlns="http://www.w3.org/2000/svg">
<g clip-path="url(#clip0_1065_7)">
<path fill-rule="evenodd" clip-rule="evenodd" d="M0 18.2174H4.55392C4.55394 18.2174 4.55396 18.2174 4.55398 18.2174C9.58414 18.2173 13.6619 14.1396 13.6619 9.10938H4.55398H4.55392H1.40123C0.62735 9.10938 0 9.73672 0 10.5106V18.2174Z" fill="#FDFDFD"/>
<path fill-rule="evenodd" clip-rule="evenodd" d="M25.9229 9.10796C26.6968 9.10796 27.3241 8.48061 27.3241 7.70673V0H22.7701V9.10796H25.9229ZM22.7701 9.10797V7.127e-06C17.7399 7.18698e-06 13.6621 4.07778 13.6621 9.10797H22.7701Z" fill="#FDFDFD"/>
<path fill-rule="evenodd" clip-rule="evenodd" d="M47.2283 16.7063C46.1628 17.5705 44.7505 18.0148 42.9913 18.0148C39.8196 18.0148 37.4409 16.4346 36.5488 13.7927L38.0355 12.9285C38.655 15.0767 40.3647 16.3359 43.016 16.3359C45.593 16.3359 47.1044 15.1013 47.1044 13.2248C47.1044 12.3112 46.7823 11.6446 46.1133 11.1755C45.4443 10.7064 44.3541 10.2372 42.8426 9.74341C41.0337 9.15087 39.8444 8.68173 39.2745 8.31138C37.9612 7.52125 37.2922 6.38544 37.2922 4.87932C37.2922 3.42256 37.8126 2.26209 38.8285 1.42259C39.8444 0.558419 41.108 0.138672 42.6195 0.138672C45.3204 0.138672 47.3769 1.69419 48.3433 3.86699L46.8815 4.6818C46.0885 2.7806 44.6762 1.81764 42.6195 1.81764C40.4639 1.81764 39.0267 2.92874 39.0267 4.80525C39.0267 5.66943 39.324 6.31141 39.9187 6.73111C40.5134 7.1509 41.5045 7.59528 42.8673 8.03975L44.2054 8.50889C44.4779 8.58293 44.8744 8.73109 45.3947 8.95336C45.9151 9.15087 46.3115 9.32371 46.5593 9.49654C47.0549 9.79277 47.9221 10.3854 48.2194 10.9532C48.5415 11.4717 48.8389 12.2865 48.8389 13.1755C48.8389 14.6322 48.2938 15.8174 47.2283 16.7063ZM88.9425 7.81819C87.8024 6.01581 86.1425 5.10223 83.9373 5.10223C82.178 5.10223 80.6666 5.7195 79.4028 6.9787C78.1639 8.23798 77.5444 9.76881 77.5444 11.5712C77.5444 13.3736 78.1639 14.9045 79.4028 16.1637C80.6666 17.4229 82.178 18.0402 83.9373 18.0402C86.1425 18.0402 87.8024 17.1267 88.9425 15.3242V17.7439H90.5779V0.460338H88.9425V7.81819ZM80.5922 15.0526C79.6506 14.0897 79.1798 12.9292 79.1798 11.5712C79.1798 10.2133 79.6506 9.05279 80.5922 8.1145C81.5338 7.15154 82.6984 6.68247 84.0612 6.68247C85.424 6.68247 86.5889 7.15154 87.53 8.1145C88.4719 9.05279 88.9425 10.2133 88.9425 11.5712C88.9425 12.9292 88.4719 14.0897 87.53 15.0526C86.5889 15.9909 85.424 16.46 84.0612 16.46C82.6984 16.46 81.5338 15.9909 80.5922 15.0526ZM57.49 5.39852H53.9219V1.94179L52.2865 2.4356V5.39852H49.6849V6.9787H52.2865V14.4601C52.2865 17.3242 54.021 18.2624 57.49 17.7439V16.3119C57.3635 16.3171 57.2403 16.3226 57.1206 16.3279L57.1196 16.328H57.1192H57.1184C54.9874 16.4225 53.9219 16.4698 53.9219 14.4601V6.9787H57.49V5.39852ZM61.5691 5.39852H59.9337V17.7439H61.5691V10.8799C61.5691 8.04047 63.2291 6.78119 65.484 6.78119V5.20099C63.6256 5.20099 62.3371 5.9417 61.5691 7.44785V5.39852ZM67.2343 5.20099L71.8926 15.744L75.9067 5.39852H77.6412L72.3386 18.8797C71.3723 21.3242 69.5139 22.855 67.3334 22.6822V21.1513C68.8201 21.3242 69.9599 20.4599 70.728 18.5834L71.0501 17.818L66.1811 6.78119L65.484 5.20099H67.2343ZM97.3665 6.68247C95.954 6.68247 94.7652 7.37381 94.7652 8.63301C94.7652 9.74413 95.9044 10.3613 97.3169 10.7318C97.3473 10.7392 97.3777 10.7467 97.4072 10.7542L97.4943 10.7758C99.5435 11.2839 102 11.8934 102 14.4848C102 15.5464 101.579 16.3859 100.736 17.0526C99.919 17.7192 98.8285 18.0402 97.5151 18.0402C95.1367 18.0402 93.4022 16.8798 92.7335 15.2008L94.1204 14.386C94.5918 15.6699 95.8549 16.46 97.5151 16.46C99.1257 16.46 100.365 15.8427 100.365 14.4848C100.365 13.3736 99.2248 12.7564 97.8131 12.3861C97.7715 12.3758 97.73 12.3655 97.6884 12.3552L97.6365 12.3422L97.6357 12.342C95.5865 11.8338 93.1298 11.2244 93.1298 8.63301C93.1298 7.62068 93.526 6.78119 94.3194 6.11453C95.1367 5.44787 96.1529 5.10223 97.3665 5.10223C99.3742 5.10223 100.984 6.06517 101.703 7.62068L100.34 8.41081C99.8695 7.25033 98.878 6.68247 97.3665 6.68247Z" fill="#FDFDFD"/>
<path d="M65.4062 5.20312H66.2645V6.78454H65.4062V5.20312Z" fill="#FDFDFD"/>
</g>
<defs>
<clipPath id="clip0_1065_7">
<rect width="102" height="23" fill="white"/>
</clipPath>
</defs>
</svg>
