<svg width="104" height="125" viewBox="0 0 104 125" fill="none" xmlns="http://www.w3.org/2000/svg">
<path d="M51.6667 124.023H50.0521C49.5139 124.023 49.0295 123.915 48.599 123.7C34.4983 119.287 22.8733 110.54 13.724 97.4599C4.57465 84.384 0 69.9345 0 54.1116V23.596C0 20.905 0.781458 18.4831 2.34437 16.3304C3.90299 14.1776 5.92014 12.6168 8.39583 11.6481L47.1458 0.807292C48.6528 0.269097 50.1597 0 51.6667 0C53.1736 0 54.6806 0.269097 56.1875 0.807292L94.9375 11.6481C97.4132 12.6168 99.4325 14.1776 100.995 16.3304C102.554 18.4831 103.333 20.905 103.333 23.596V54.1116C103.333 69.9345 98.7587 84.384 89.6094 97.4599C80.4601 110.54 68.8351 119.287 54.7344 123.7C54.1962 123.915 53.1736 124.023 51.6667 124.023Z" fill="#A6FF00"/>
<path d="M32 62.0721L46.0956 76.1677L74.2867 47.9766" fill="#A6FF00"/>
<path d="M32 62.0721L46.0956 76.1677L74.2867 47.9766" stroke="#101010" stroke-width="8" stroke-linecap="round" stroke-linejoin="round"/>
</svg>
